<svg xmlns="http://www.w3.org/2000/svg" id="Layer_1" x="0" y="0" version="1.1" viewBox="0 0 100 100" xml:space="preserve"><path fill="#2ec19c" d="M2 2h96v96H2z"/><path fill="#348969" d="M98 64.044l-38.12-38.12c-.6-.6-1.39-.92-2.23-.92H33.2c-1.73 0-3.15 1.41-3.15 3.15v43.7c0 .98.47 1.85 1.18 2.43h-.02L54.927 98H98V64.044z"/><path fill="#fff" d="M69.03 35.07l-9.15-9.15c-.6-.6-1.39-.92-2.23-.92H33.2c-1.73 0-3.15 1.41-3.15 3.15v43.7c0 1.73 1.42 3.15 3.15 3.15h33.6c1.74 0 3.15-1.42 3.15-3.15V37.3c0-.85-.33-1.64-.92-2.23zM42.31 30a3.999 3.999 0 1 1 .002 7.998A3.999 3.999 0 0 1 42.31 30zm-6.76 17.24v-2.36c0-3.25 2.64-5.89 5.89-5.89h1.75c3.24 0 5.88 2.64 5.88 5.89v2.36c0 .55-.44 1-1 1H36.55c-.56 0-1-.45-1-1zm26.41 21.22H38.043a1 1 0 1 1 0-2H61.96a1 1 0 1 1 0 2zm0-7.34H38.043a1 1 0 1 1 0-2H61.96a1 1 0 1 1 0 2zm0-7.34H38.043a1 1 0 1 1 0-2H61.96a1 1 0 1 1 0 2zm0-7.34h-7.886a1 1 0 1 1 0-2h7.886a1 1 0 1 1 0 2zm0-6.868H50.324a1 1 0 1 1 0-2H61.96a1 1 0 1 1 0 2z"/></svg>